<svg xmlns="http://www.w3.org/2000/svg" width="20" height="20" viewBox="0 0 20 20" fill="none">
<path fill-rule="evenodd" clip-rule="evenodd" d="M9.16699 3.33366C5.94533 3.33366 3.33366 5.94533 3.33366 9.16699C3.33366 12.3887 5.94533 15.0003 9.16699 15.0003C12.3887 15.0003 15.0003 12.3887 15.0003 9.16699C15.0003 5.94533 12.3887 3.33366 9.16699 3.33366ZM1.66699 9.16699C1.66699 5.02486 5.02486 1.66699 9.16699 1.66699C13.3091 1.66699 16.667 5.02486 16.667 9.16699C16.667 13.3091 13.3091 16.667 9.16699 16.667C5.02486 16.667 1.66699 13.3091 1.66699 9.16699Z" fill="#E0E0E0" fill-opacity="0.48"/>
<path fill-rule="evenodd" clip-rule="evenodd" d="M13.2856 13.2856C13.611 12.9601 14.1387 12.9601 14.4641 13.2856L18.0891 16.9106C18.4145 17.236 18.4145 17.7637 18.0891 18.0891C17.7637 18.4145 17.236 18.4145 16.9106 18.0891L13.2856 14.4641C12.9601 14.1387 12.9601 13.611 13.2856 13.2856Z" fill="#E0E0E0" fill-opacity="0.48"/>
</svg>