<svg
									xmlns="http://www.w3.org/2000/svg"
									width="20"
									height="20"
									viewBox="0 0 20 20"
									fill="none"
								>
									<path
										d="M8.92154 12.7128L13.6074 8.04776L12.8334 7.2738L8.92154 11.1648L7.15071 9.41484L6.37675 10.1888L8.92154 12.7128ZM10.0015 17.5846C8.9621 17.5846 7.98147 17.3873 7.05966 16.9926C6.13786 16.5978 5.33105 16.0547 4.63925 15.3632C3.94744 14.6716 3.40404 13.8652 3.00904 12.9438C2.61418 12.0224 2.41675 11.0421 2.41675 10.0028C2.41675 8.94943 2.61411 7.96533 3.00883 7.05047C3.40355 6.13561 3.94668 5.33227 4.63821 4.64047C5.32973 3.94866 6.13619 3.40526 7.05758 3.01026C7.97897 2.6154 8.95932 2.41797 9.99862 2.41797C11.052 2.41797 12.0361 2.61533 12.9509 3.01005C13.8658 3.40477 14.6691 3.9479 15.3609 4.63943C16.0527 5.33096 16.5961 6.13394 16.9911 7.04839C17.386 7.96283 17.5834 8.94665 17.5834 9.99984C17.5834 11.0393 17.3861 12.0199 16.9913 12.9417C16.5966 13.8635 16.0535 14.6703 15.362 15.3621C14.6704 16.0539 13.8674 16.5973 12.953 16.9923C12.0386 17.3872 11.0547 17.5846 10.0015 17.5846ZM10.0001 16.5013C11.8056 16.5013 13.3404 15.8694 14.6042 14.6055C15.8681 13.3416 16.5001 11.8069 16.5001 10.0013C16.5001 8.19575 15.8681 6.66102 14.6042 5.39714C13.3404 4.13325 11.8056 3.5013 10.0001 3.5013C8.19453 3.5013 6.6598 4.13325 5.39591 5.39714C4.13203 6.66102 3.50008 8.19575 3.50008 10.0013C3.50008 11.8069 4.13203 13.3416 5.39591 14.6055C6.6598 15.8694 8.19453 16.5013 10.0001 16.5013Z"
										fill="#006B25"
										fill-opacity="0.64"
									/>
								</svg>